<svg width="180" height="180" viewBox="0 0 180 180" fill="none" xmlns="http://www.w3.org/2000/svg">
<path d="M65.1738 5.21511L77.9281 1.87594C84.1443 0.741092 90.4432 0.113694 96.7619 0C105.802 0 113.095 1.22311 133.3 6.003C139.236 7.4062 154.393 14.1221 158.002 16.7034C158.514 17.071 158.914 16.5308 162.68 20.5078C164.496 22.4212 163.961 22.0085 165.694 25.01C165.777 25.1151 162.937 23.7944 162.808 23.7569L160.036 23.1266C159.332 22.935 158.593 22.903 157.875 23.0329C157.157 23.1627 156.477 23.4511 155.885 23.8769C155.667 24.0318 155.501 24.2484 155.408 24.4987C155.315 24.749 155.3 25.0213 155.365 25.2801C155.534 25.9501 155.841 26.5774 156.268 27.1215C156.695 27.6657 157.232 28.1146 157.844 28.4392L159.931 29.5498C161.007 30.1225 161.992 30.8508 162.854 31.7109L168.127 36.9635C168.519 37.3611 168.867 37.7987 169.167 38.2691L170.824 40.8354C170.229 39.92 172.384 43.7094 171.721 43.4317L168.707 41.053C168.044 40.7754 168.587 42.3137 169.009 42.9515L169.084 43.049L172.188 46.4707L172.233 46.5233C172.497 46.8759 174.885 50.0875 171.171 47.9565H171.11L164.33 44.8499C164.085 44.7722 163.82 44.776 163.577 44.8606C163.334 44.9453 163.125 45.1063 162.981 45.3195C162.838 45.5327 162.767 45.7865 162.781 46.0428C162.795 46.2991 162.892 46.5441 163.057 46.7409L169.958 54.9425L170.003 55.0025C170.254 55.3677 170.52 55.7229 170.802 56.068L175.631 62.071C175.774 62.2487 175.9 62.4397 176.007 62.6413L179.299 68.8244C179.76 69.6996 180 70.6729 180 71.6608V73.987C179.998 74.552 179.879 75.1105 179.649 75.6271C179.42 76.1438 179.085 76.6073 178.667 76.9885C178.461 77.1782 178.221 77.3258 177.958 77.4228C177.695 77.5199 177.416 77.5644 177.136 77.554C176.857 77.5435 176.582 77.4783 176.327 77.3619C176.073 77.2456 175.844 77.0804 175.653 76.8759L173.461 74.5498C173.372 74.4547 173.31 74.3383 173.28 74.2121L172.587 71.3307C172.511 71.1073 172.357 70.9184 172.154 70.7977C171.951 70.6771 171.711 70.6326 171.477 70.6724C171.244 70.7122 171.033 70.8336 170.881 71.0148C170.73 71.196 170.648 71.425 170.651 71.6608L170.945 91.7934C170.945 92.3487 170.372 93.917 169.815 93.917C169.34 93.917 169.122 93.5042 169.061 93.039L167.909 84.5373C167.811 83.4192 166.846 83.937 166.952 82.4812C166.958 82.4184 166.951 82.355 166.93 82.2954C166.909 82.2358 166.875 82.1815 166.831 82.1361L166.53 81.8359C166.098 81.4106 165.762 80.8992 165.543 80.3352C165.348 79.5122 164.833 78.7999 164.112 78.3542L163.946 78.2641C163.856 78.1741 163.343 77.4462 162.861 76.7634C162.621 76.4388 162.296 76.187 161.921 76.036C161.545 75.8849 161.136 75.8406 160.737 75.908L158.725 76.2456C158.148 76.3095 157.566 76.1686 157.083 75.8479L154.401 73.8519C153.073 72.7825 151.967 71.4646 151.147 69.9725L147.809 63.3242L146.408 61.3282L142.234 57.0285C141.303 56.048 140.207 55.2378 138.995 54.6348L136.592 53.4417L134.407 52.6913L133.398 52.5263C132.602 52.3861 131.793 52.3408 130.987 52.3912C126.994 52.6238 126.045 51.6408 123.536 48.1966L123.144 47.8589C122.155 47.0068 121.016 46.3452 119.784 45.908L119.31 45.7429C116.843 45.142 114.315 44.8297 111.776 44.8124H111.498L105.727 45.3152C105.669 45.323 105.611 45.323 105.554 45.3152C99.8356 44.2196 96.9879 45.4802 93.1609 46.966L85.4239 49.9675L78.4102 52.6838C76.4736 53.4163 74.4904 54.0204 72.4738 54.4922L66.8764 55.7304C66.8387 55.7304 67.9084 54.98 68.5262 54.6048C68.6467 54.5223 70.8767 53.3517 71.3211 53.104H71.3739L74.5304 51.6033C76.4715 50.777 78.2851 49.6805 79.9169 48.3467H79.9546L80.3162 48.0165C80.4437 47.9052 80.5297 47.7543 80.5605 47.5882C80.5912 47.4221 80.5648 47.2506 80.4855 47.1013C80.4062 46.9521 80.2787 46.8338 80.1235 46.7657C79.9684 46.6975 79.7948 46.6835 79.6306 46.7259L79.4046 46.7784H79.3594L73.5586 48.2341H73.4908C73.0237 48.4067 67.8331 50.4402 67.6448 50.5303C66.1757 51.2056 65.9799 51.2806 65.7765 51.3707C64.3601 52.0235 58.597 54.6798 58.1977 55.01L53.6776 57.6138C52.9954 58.0111 52.3433 58.4575 51.7264 58.9495C49.7225 60.4877 45.9557 63.4667 43.8765 66.4082C41.231 70.125 39.1636 74.2181 37.7441 78.5493L36.3203 82.8189C35.1867 86.867 34.6114 91.05 34.6102 95.2526V98.029C34.6102 103.424 35.7628 108.782 37.1565 113.914L40.7651 123.932C40.7651 123.977 39.9515 122.431 39.9741 122.431C41.9855 126.183 44.1401 129.785 44.9462 131.046C44.9462 131.046 43.3642 128.974 43.7333 129.597L51.4477 138.819C53.4064 141.161 55.802 142.496 58.3484 144.642C58.6354 144.886 58.9429 145.104 59.2675 145.295L71.9389 152.716C73.1692 153.437 74.4753 154.021 75.8337 154.457L82.1016 156.468C84.3338 157.185 86.6647 157.549 89.0099 157.549H97.116C97.8894 157.549 98.6629 157.514 99.4363 157.444L123.348 155.328C123.438 155.328 129.036 153.077 130.64 152.191C131.348 151.793 132.9 150.803 133.217 150.615L134.565 149.632C135.212 149.336 135.879 149.085 136.562 148.882L139.575 147.584L138.618 148.762L137.292 149.917L135.665 151.291C135.1 152.199 135.605 151.636 136.328 151.418L137.255 151.103C136.562 152.934 134.422 154.225 135.326 153.617L126.286 159.71L125.013 160.58H128.403L121.389 163.522C119.039 164.487 116.638 165.322 114.195 166.02L107.46 167.424C107.132 167.516 106.797 167.577 106.458 167.604L101.29 167.986L94.9313 168.189C94.5675 168.211 94.2027 168.211 93.8389 168.189C90.4187 167.889 87.3826 168.069 85.4691 167.244L77.9733 165.03H77.9205C70.6205 164.175 64.9327 159.95 62.8534 159.32C62.6364 159.248 62.427 159.155 62.2282 159.042L52.638 153.827L38.8817 144.657C38.731 144.548 38.5448 144.498 38.3592 144.517C38.1735 144.536 38.0017 144.623 37.8769 144.762C37.7522 144.9 37.6834 145.079 37.6839 145.265C37.6844 145.451 37.7542 145.63 37.8798 145.768L45.2551 154.667C45.4886 154.952 49.1349 158.232 49.4437 158.419L55.5082 163.672C56.0159 164.109 56.5843 164.47 57.1958 164.745L62.1679 166.996L73.0765 171.686C73.3207 171.788 73.5726 171.871 73.8298 171.933L94.9237 177.464C94.9237 177.464 100.762 177.929 93.982 179.625C93.6581 179.707 91.3453 179.812 88.2415 180H85.5143C83.2369 179.807 80.9923 179.333 78.8321 178.589L62.537 172.751C62.3596 172.681 62.1636 172.674 61.9813 172.73C61.7991 172.787 61.6418 172.903 61.5353 173.061C61.4289 173.219 61.3798 173.408 61.3962 173.597C61.4126 173.787 61.4935 173.965 61.6255 174.102L63.5013 176.203C63.6572 176.331 63.7554 176.516 63.7745 176.717C63.7936 176.917 63.7319 177.117 63.603 177.272C63.4742 177.428 63.2887 177.525 63.0873 177.544C62.886 177.563 62.6853 177.502 62.5295 177.374L52.5099 172.496C48.8486 170.515 47.711 170.62 44.8407 168.302C43.9895 167.611 38.8139 163.664 37.4428 162.741C35.1827 161.241 33.676 160.1 33.5856 160.025L32.3652 159.275C32.1543 159.147 29.8565 156.723 29.6682 156.573C27.7395 154.935 25.6812 153.454 23.5133 152.146C20.5978 149.332 19.6561 145.168 18.3754 142.886L15.8743 138.384C15.6106 137.911 15.3319 137.454 15.0381 136.996C14.1867 135.644 13.4071 134.249 12.7027 132.816L9.28996 124.187C9.2438 124.07 9.1582 123.973 9.04788 123.912C8.93757 123.851 8.80942 123.831 8.68548 123.854C8.56154 123.877 8.44955 123.942 8.36876 124.039C8.28797 124.135 8.24343 124.257 8.2428 124.382L8.61948 132.044C8.61948 132.456 8.06953 131.143 7.64012 130.055C7.28521 129.142 6.88288 128.248 6.43475 127.376L5.83207 126.206C3.79554 122.259 2.40684 118.013 1.71876 113.629C1.37221 111.423 1.09347 109.472 1.09347 109.127L0.00110883 96.4682C-0.000369611 96.4432 -0.000369611 96.4182 0.00110883 96.3932C0.00110883 95.3277 1.16881 83.2316 1.32701 82.3987L2.95426 73.8519C4.35331 66.5137 6.71127 59.3896 9.96798 52.6613L11.6706 49.1421C18.2021 35.6428 23.3551 30.2101 36.1621 19.5998L36.2299 19.5548L43.6956 14.5573C50.3283 10.3582 57.5734 7.20689 65.1738 5.21511Z" fill="url(#paint0_linear_9_6)"/>
<path d="M85.5905 65.9844C84.7915 65.6525 83.9055 65.5928 83.0692 65.8145C82.2329 66.0362 81.4928 66.527 80.9632 67.2112C79.8431 68.676 78.2228 70.874 76.1398 74.0058C72.608 79.5889 69.3582 85.3456 66.4027 91.2541C64.3166 95.2694 62.7461 99.5322 61.7286 103.941C60.7504 108.454 60.2284 113.054 60.1705 117.671C60.1705 117.671 60.4957 121.676 61.845 123.195C63.8143 125.452 64.5537 126.232 67.7914 127.156C71.029 128.081 71.1539 128.453 75.9085 128.148C80.6632 127.843 82.7913 127.992 85.685 126.281C87.5804 125.167 87.5819 125.057 89.942 122.879C90.3685 122.563 90.6937 122.129 90.8781 121.631C91.0624 121.132 91.098 120.591 90.9805 120.073C90.9228 119.848 90.8181 119.639 90.6732 119.457C90.5283 119.276 90.3466 119.127 90.1401 119.022C89.9336 118.916 89.707 118.855 89.4752 118.843C89.2434 118.831 89.0118 118.869 88.7956 118.953C84.0494 120.108 83.0986 121.615 77.8426 122.024C74.9577 122.321 72.043 122.112 69.2302 121.406C69.2302 121.406 65.2377 120.831 66.2217 113.244C67.2319 105.719 69.4423 98.4056 72.7688 91.5813C74.8916 87.0099 79.7133 77.425 83.3943 73.7251C87.0753 70.0251 87.4654 68.5603 85.9984 66.14L85.5905 65.9844Z" fill="#328BDE" stroke="#328BDE" stroke-width="0.25" stroke-miterlimit="10"/>
<path fill-rule="evenodd" clip-rule="evenodd" d="M94.3179 118.025L113.696 72.2859L113.225 70.8993C113.225 70.8993 112.732 69.6325 113.117 69.2677L113.124 69.2609C113.507 68.8982 113.909 68.5175 118.901 66.8467C123.924 65.1653 128.287 65.725 133.256 68.0433C138.225 70.3615 137.506 76.8523 136.588 80.3401C135.837 83.1918 134.43 84.6973 131.86 87.4465C131.287 88.0596 130.656 88.7346 129.962 89.5002C128.364 91.3163 126.518 92.8971 124.477 94.1956C124.401 94.2421 124.342 94.3109 124.307 94.3926C124.272 94.4742 124.263 94.5646 124.282 94.6514C124.3 94.7383 124.345 94.8172 124.411 94.8775C124.476 94.9377 124.558 94.9763 124.646 94.9879C126.972 95.2253 129.172 96.1599 130.957 97.6692C132.742 99.1784 134.03 101.192 134.651 103.446C137.173 111.361 133.7 115.964 132.796 116.952C132.644 117.124 132.508 117.309 132.389 117.506C131.263 119.331 125.423 128.082 114.783 130.176C104.539 132.186 102.318 128.87 100.57 126.262C100.286 125.837 100.014 125.431 99.7219 125.07C98.3253 123.335 99.0268 122.803 99.9996 122.064C100.116 121.976 100.236 121.885 100.357 121.788C100.564 121.625 100.801 121.504 101.055 121.432C101.308 121.361 101.573 121.34 101.835 121.372C102.097 121.403 102.35 121.486 102.579 121.616C102.809 121.745 103.01 121.919 103.173 122.127C103.91 123.027 105.366 124.107 108.226 124.836C111.851 125.645 115.646 125.08 118.879 123.252C122.222 121.228 125.076 118.49 127.239 115.235C128.673 113.26 129.353 110.838 129.157 108.405C128.961 105.972 127.902 103.69 126.171 101.969C124.065 100.19 121.08 99.0295 116.576 99.3379C113.926 99.5815 111.314 100.133 108.793 100.981C108.369 101.12 107.984 101.354 107.666 101.665C107.348 101.976 107.105 102.357 106.958 102.777C105.658 106.439 101.966 116.719 100.286 120.367C98.225 124.839 95.9975 123.178 95.9975 123.178C92.753 122.754 94.3179 118.025 94.3179 118.025ZM119.819 73.5638L111.056 93.4457C113.666 94.1079 116.428 93.7899 118.819 92.5519C123.097 90.4903 129.198 83.1931 129.198 83.1931C129.198 83.1931 134.795 76.1391 132.713 72.6103C130.797 69.3621 128.619 69.7708 126.04 70.2547C125.818 70.2965 125.592 70.3388 125.363 70.3794C123.945 70.6034 122.582 71.0901 121.343 71.8145C120.67 72.2305 120.139 72.8403 119.819 73.5638Z" fill="#328BDE"/>
<path d="M113.696 72.2859L113.811 72.3347L113.83 72.2908L113.814 72.2457L113.696 72.2859ZM94.3179 118.025L94.2024 117.976L94.1992 117.986L94.3179 118.025ZM113.225 70.8993L113.343 70.8591L113.341 70.854L113.225 70.8993ZM113.117 69.2677L113.203 69.3584L113.203 69.3584L113.117 69.2677ZM113.124 69.2609L113.21 69.3516L113.21 69.3516L113.124 69.2609ZM118.901 66.8467L118.861 66.7281L118.901 66.8467ZM133.256 68.0433L133.203 68.1566L133.256 68.0433ZM136.588 80.3401L136.467 80.3082L136.467 80.3082L136.588 80.3401ZM131.86 87.4465L131.769 87.3611L131.86 87.4465ZM129.962 89.5002L129.869 89.4162L129.868 89.4176L129.962 89.5002ZM124.477 94.1956L124.543 94.302L124.544 94.301L124.477 94.1956ZM124.646 94.9879L124.63 95.1119L124.633 95.1123L124.646 94.9879ZM134.651 103.446L134.531 103.479L134.532 103.484L134.651 103.446ZM132.796 116.952L132.704 116.867L132.703 116.869L132.796 116.952ZM132.389 117.506L132.495 117.572L132.495 117.571L132.389 117.506ZM114.783 130.176L114.807 130.299L114.808 130.299L114.783 130.176ZM100.57 126.262L100.467 126.331L100.57 126.262ZM99.7219 125.07L99.6246 125.148L99.6247 125.148L99.7219 125.07ZM99.9996 122.064L100.075 122.164L100.075 122.164L99.9996 122.064ZM100.357 121.788L100.279 121.69L100.279 121.69L100.357 121.788ZM101.055 121.432L101.088 121.553L101.088 121.553L101.055 121.432ZM101.835 121.372L101.85 121.248L101.835 121.372ZM102.579 121.616L102.641 121.507L102.579 121.616ZM103.173 122.127L103.074 122.203L103.076 122.206L103.173 122.127ZM108.226 124.836L108.195 124.957L108.199 124.958L108.226 124.836ZM118.879 123.252L118.94 123.36L118.943 123.359L118.879 123.252ZM127.239 115.235L127.138 115.162L127.135 115.166L127.239 115.235ZM126.171 101.969L126.259 101.881L126.251 101.874L126.171 101.969ZM116.576 99.3379L116.567 99.2131L116.564 99.2134L116.576 99.3379ZM108.793 100.981L108.831 101.1L108.832 101.1L108.793 100.981ZM106.958 102.777L107.076 102.818L107.076 102.818L106.958 102.777ZM100.286 120.367L100.4 120.419L100.4 120.419L100.286 120.367ZM95.9975 123.178L96.0722 123.078L96.046 123.059L96.0137 123.054L95.9975 123.178ZM111.056 93.4457L110.941 93.3953L110.882 93.5305L111.025 93.5669L111.056 93.4457ZM119.819 73.5638L119.705 73.5133L119.705 73.5134L119.819 73.5638ZM118.819 92.5519L118.765 92.4393L118.761 92.4409L118.819 92.5519ZM129.198 83.1931L129.294 83.2733L129.296 83.2708L129.198 83.1931ZM132.713 72.6103L132.605 72.6738L132.713 72.6103ZM126.04 70.2547L126.017 70.1318L126.04 70.2547ZM125.363 70.3794L125.383 70.5029L125.385 70.5025L125.363 70.3794ZM121.343 71.8145L121.28 71.7066L121.277 71.7082L121.343 71.8145ZM113.581 72.2371L94.2028 117.976L94.433 118.074L113.811 72.3347L113.581 72.2371ZM113.106 70.9395L113.578 72.3261L113.814 72.2457L113.343 70.8591L113.106 70.9395ZM113.031 69.177C112.9 69.3017 112.855 69.4897 112.847 69.6707C112.838 69.8557 112.866 70.0598 112.904 70.2457C112.943 70.4326 112.994 70.6069 113.035 70.7341C113.055 70.7978 113.074 70.85 113.087 70.8865C113.093 70.9047 113.099 70.9191 113.102 70.9289C113.104 70.9339 113.106 70.9377 113.107 70.9403C113.107 70.9416 113.108 70.9427 113.108 70.9434C113.108 70.9437 113.108 70.944 113.108 70.9442C113.108 70.9443 113.108 70.9444 113.108 70.9445C113.108 70.9445 113.108 70.9446 113.108 70.9446C113.108 70.9446 113.108 70.9446 113.225 70.8993C113.341 70.854 113.341 70.854 113.341 70.854C113.341 70.854 113.341 70.854 113.341 70.854C113.341 70.854 113.341 70.854 113.341 70.854C113.341 70.8539 113.341 70.8537 113.341 70.8534C113.341 70.8529 113.341 70.8521 113.34 70.851C113.339 70.8489 113.338 70.8455 113.336 70.8411C113.333 70.8322 113.328 70.819 113.322 70.8019C113.31 70.7676 113.292 70.718 113.273 70.6573C113.233 70.5355 113.185 70.3703 113.149 70.1949C113.112 70.0185 113.089 69.8375 113.096 69.6824C113.104 69.5232 113.142 69.4161 113.203 69.3584L113.031 69.177ZM113.038 69.1701L113.031 69.177L113.203 69.3584L113.21 69.3516L113.038 69.1701ZM118.861 66.7281C113.875 68.3969 113.445 68.7849 113.038 69.1701L113.21 69.3516C113.569 69.0115 113.942 68.6382 118.94 66.9652L118.861 66.7281ZM133.309 67.93C128.317 65.6011 123.921 65.0346 118.861 66.7281L118.94 66.9652C123.928 65.296 128.257 65.8489 133.203 68.1566L133.309 67.93ZM136.709 80.3719C137.17 78.6202 137.583 76.1074 137.253 73.7359C136.923 71.3613 135.844 69.1129 133.309 67.93L133.203 68.1566C135.636 69.2919 136.682 71.4481 137.005 73.7703C137.329 76.0957 136.924 78.5722 136.467 80.3082L136.709 80.3719ZM131.952 87.5318C134.519 84.7852 135.949 83.2583 136.709 80.3719L136.467 80.3082C135.726 83.1253 134.341 84.6095 131.769 87.3611L131.952 87.5318ZM130.054 89.5842C130.748 88.8194 131.378 88.145 131.952 87.5318L131.769 87.3611C131.196 87.9742 130.564 88.6498 129.869 89.4162L130.054 89.5842ZM124.544 94.301C126.595 92.9962 128.45 91.4077 130.056 89.5828L129.868 89.4176C128.278 91.2249 126.441 92.798 124.41 94.0901L124.544 94.301ZM124.422 94.4417C124.447 94.3838 124.489 94.335 124.542 94.302L124.411 94.0891C124.314 94.1492 124.237 94.2381 124.192 94.3434L124.422 94.4417ZM124.404 94.6253C124.391 94.5638 124.397 94.4996 124.422 94.4417L124.192 94.3434C124.147 94.4488 124.136 94.5655 124.16 94.6775L124.404 94.6253ZM124.495 94.7857C124.449 94.7429 124.417 94.6869 124.404 94.6253L124.16 94.6775C124.184 94.7896 124.242 94.8915 124.326 94.9693L124.495 94.7857ZM124.662 94.864C124.6 94.8558 124.542 94.8284 124.495 94.7857L124.326 94.9693C124.41 95.047 124.516 95.0968 124.63 95.1119L124.662 94.864ZM131.038 97.5737C129.233 96.0482 127.01 95.1035 124.659 94.8636L124.633 95.1123C126.934 95.3471 129.11 96.2716 130.876 97.7646L131.038 97.5737ZM134.772 103.412C134.144 101.134 132.842 99.0992 131.038 97.5737L130.876 97.7646C132.642 99.2576 133.916 101.249 134.531 103.479L134.772 103.412ZM132.888 117.036C133.813 116.026 137.31 111.378 134.77 103.408L134.532 103.484C137.037 111.344 133.587 115.902 132.704 116.867L132.888 117.036ZM132.495 117.571C132.611 117.38 132.743 117.201 132.89 117.034L132.703 116.869C132.545 117.047 132.404 117.238 132.282 117.441L132.495 117.571ZM114.808 130.299C125.502 128.194 131.366 119.402 132.495 117.572L132.282 117.44C131.161 119.259 125.345 127.97 114.759 130.054L114.808 130.299ZM100.467 126.331C101.34 127.635 102.35 129.145 104.44 130.065C106.528 130.984 109.673 131.306 114.807 130.299L114.759 130.054C109.649 131.056 106.562 130.725 104.541 129.836C102.523 128.948 101.548 127.496 100.674 126.192L100.467 126.331ZM99.6247 125.148C99.9126 125.504 100.181 125.905 100.467 126.331L100.674 126.192C100.39 125.768 100.115 125.357 99.8191 124.991L99.6247 125.148ZM99.924 121.964C99.6826 122.148 99.4489 122.325 99.261 122.513C99.072 122.702 98.9209 122.91 98.8517 123.16C98.712 123.665 98.9223 124.276 99.6246 125.148L99.8193 124.991C99.125 124.129 98.9877 123.606 99.0927 123.227C99.146 123.034 99.2653 122.862 99.4378 122.69C99.6113 122.516 99.8302 122.35 100.075 122.164L99.924 121.964ZM100.279 121.69C100.159 121.786 100.04 121.876 99.924 121.964L100.075 122.164C100.191 122.075 100.313 121.983 100.435 121.886L100.279 121.69ZM101.021 121.312C100.751 121.388 100.499 121.516 100.279 121.69L100.434 121.886C100.628 121.733 100.851 121.62 101.088 121.553L101.021 121.312ZM101.85 121.248C101.572 121.214 101.29 121.236 101.021 121.312L101.088 121.553C101.326 121.486 101.575 121.467 101.82 121.496L101.85 121.248ZM102.641 121.507C102.397 121.369 102.128 121.281 101.85 121.248L101.82 121.496C102.065 121.525 102.303 121.603 102.518 121.725L102.641 121.507ZM103.271 122.05C103.099 121.829 102.884 121.644 102.641 121.507L102.518 121.725C102.733 121.846 102.922 122.009 103.074 122.203L103.271 122.05ZM108.257 124.715C105.415 123.99 103.986 122.922 103.269 122.047L103.076 122.206C103.835 123.132 105.316 124.223 108.195 124.957L108.257 124.715ZM118.817 123.143C115.612 124.956 111.848 125.516 108.253 124.714L108.199 124.958C111.853 125.773 115.681 125.204 118.94 123.36L118.817 123.143ZM127.135 115.166C124.983 118.406 122.141 121.13 118.814 123.145L118.943 123.359C122.302 121.325 125.17 118.575 127.343 115.305L127.135 115.166ZM129.032 108.415C129.226 110.818 128.554 113.211 127.138 115.162L127.34 115.309C128.791 113.309 129.48 110.857 129.282 108.395L129.032 108.415ZM126.083 102.058C127.793 103.757 128.839 106.012 129.032 108.415L129.282 108.395C129.083 105.932 128.011 103.622 126.259 101.881L126.083 102.058ZM116.584 99.4626C121.061 99.1561 124.012 100.31 126.09 102.065L126.251 101.874C124.118 100.071 121.1 98.9029 116.567 99.2132L116.584 99.4626ZM108.832 101.1C111.345 100.255 113.947 99.7051 116.587 99.4623L116.564 99.2134C113.905 99.4579 111.284 100.011 108.753 100.863L108.832 101.1ZM107.753 101.754C108.058 101.456 108.427 101.233 108.831 101.1L108.754 100.863C108.312 101.007 107.91 101.251 107.578 101.576L107.753 101.754ZM107.076 102.818C107.217 102.416 107.449 102.052 107.753 101.754L107.578 101.576C107.246 101.9 106.994 102.297 106.84 102.735L107.076 102.818ZM100.4 120.419C102.083 116.765 105.776 106.478 107.076 102.818L106.84 102.735C105.539 106.4 101.85 116.674 100.173 120.315L100.4 120.419ZM95.9975 123.178C95.9228 123.279 95.9229 123.279 95.923 123.279C95.923 123.279 95.9231 123.279 95.9232 123.279C95.9234 123.279 95.9236 123.279 95.9239 123.279C95.9244 123.28 95.925 123.28 95.9258 123.281C95.9273 123.282 95.9294 123.283 95.9321 123.285C95.9373 123.289 95.9448 123.294 95.9543 123.3C95.9733 123.313 96.0006 123.33 96.0357 123.35C96.1059 123.389 96.2075 123.44 96.3358 123.486C96.5925 123.577 96.9575 123.649 97.3906 123.573C98.2626 123.419 99.3609 122.673 100.4 120.419L100.173 120.315C99.1505 122.533 98.1043 123.193 97.3472 123.327C96.9657 123.394 96.6451 123.33 96.4197 123.25C96.3069 123.21 96.2184 123.166 96.1587 123.132C96.1289 123.115 96.1064 123.101 96.0917 123.092C96.0844 123.087 96.0791 123.083 96.0758 123.081C96.0742 123.08 96.073 123.079 96.0724 123.078C96.0721 123.078 96.0719 123.078 96.0719 123.078C96.0719 123.078 96.0719 123.078 96.072 123.078C96.072 123.078 96.072 123.078 96.072 123.078C96.0721 123.078 96.0722 123.078 95.9975 123.178ZM94.3179 118.025C94.1992 117.986 94.1992 117.986 94.1992 117.986C94.1991 117.986 94.1991 117.986 94.1991 117.986C94.199 117.986 94.1989 117.986 94.1988 117.987C94.1986 117.987 94.1983 117.988 94.1979 117.99C94.1971 117.992 94.1959 117.996 94.1944 118C94.1914 118.01 94.1871 118.024 94.1816 118.041C94.1706 118.077 94.1551 118.129 94.1366 118.195C94.0996 118.327 94.0504 118.516 94.0018 118.744C93.9047 119.199 93.8087 119.814 93.816 120.444C93.8233 121.072 93.9335 121.729 94.2598 122.26C94.59 122.796 95.1345 123.192 95.9813 123.302L96.0137 123.054C95.2382 122.953 94.7617 122.598 94.4727 122.129C94.18 121.653 94.073 121.048 94.066 120.441C94.059 119.836 94.1514 119.241 94.2463 118.797C94.2937 118.574 94.3415 118.391 94.3773 118.263C94.3953 118.199 94.4102 118.149 94.4206 118.115C94.4258 118.098 94.4298 118.085 94.4326 118.077C94.4339 118.072 94.4349 118.069 94.4356 118.067C94.436 118.066 94.4362 118.065 94.4364 118.065C94.4364 118.064 94.4365 118.064 94.4365 118.064C94.4365 118.064 94.4365 118.064 94.4366 118.064C94.4366 118.064 94.4365 118.064 94.3179 118.025ZM111.17 93.4961L119.933 73.6143L119.705 73.5134L110.941 93.3953L111.17 93.4961ZM118.761 92.4409C116.397 93.6648 113.667 93.9792 111.087 93.3246L111.025 93.5669C113.665 94.2366 116.458 93.915 118.876 92.6629L118.761 92.4409ZM129.198 83.1931C129.102 83.113 129.102 83.113 129.102 83.113C129.102 83.1131 129.102 83.1132 129.102 83.1133C129.102 83.1135 129.101 83.1138 129.101 83.1142C129.1 83.1151 129.099 83.1164 129.098 83.1181C129.095 83.1216 129.09 83.1268 129.085 83.1336C129.073 83.1474 129.056 83.1679 129.033 83.1948C128.987 83.2485 128.92 83.3277 128.833 83.4292C128.658 83.6322 128.403 83.9248 128.085 84.2823C127.447 84.9975 126.552 85.9724 125.524 87.0115C123.464 89.094 120.882 91.4189 118.765 92.4393L118.873 92.6645C121.034 91.6233 123.642 89.2689 125.702 87.1873C126.734 86.1444 127.631 85.1662 128.271 84.4487C128.591 84.09 128.847 83.7963 129.022 83.5922C129.11 83.4902 129.178 83.4106 129.224 83.3564C129.247 83.3293 129.264 83.3086 129.276 83.2946C129.282 83.2876 129.286 83.2823 129.289 83.2788C129.291 83.277 129.292 83.2756 129.293 83.2747C129.293 83.2743 129.293 83.2739 129.294 83.2737C129.294 83.2736 129.294 83.2735 129.294 83.2734C129.294 83.2733 129.294 83.2733 129.198 83.1931ZM132.605 72.6738C133.104 73.5184 133.149 74.585 132.92 75.728C132.691 76.8695 132.192 78.0705 131.625 79.1676C131.059 80.2639 130.427 81.2513 129.937 81.965C129.692 82.3217 129.482 82.6098 129.334 82.8084C129.26 82.9077 129.201 82.9847 129.161 83.0367C129.141 83.0628 129.126 83.0825 129.115 83.0958C129.11 83.1024 129.106 83.1074 129.104 83.1106C129.103 83.1123 129.102 83.1135 129.101 83.1143C129.101 83.1147 129.1 83.115 129.1 83.1152C129.1 83.1153 129.1 83.1154 129.1 83.1154C129.1 83.1154 129.1 83.1154 129.198 83.1931C129.296 83.2708 129.296 83.2708 129.296 83.2707C129.296 83.2707 129.296 83.2705 129.296 83.2704C129.296 83.2702 129.297 83.2698 129.297 83.2694C129.298 83.2685 129.299 83.2671 129.3 83.2654C129.303 83.2619 129.307 83.2567 129.312 83.2498C129.323 83.2361 129.339 83.2159 129.359 83.1894C129.4 83.1363 129.46 83.0583 129.535 82.9579C129.684 82.757 129.896 82.4663 130.143 82.1066C130.637 81.3874 131.275 80.3908 131.847 79.2824C132.419 78.175 132.93 76.9507 133.165 75.7771C133.4 74.605 133.363 73.4666 132.821 72.5468L132.605 72.6738ZM126.063 70.3775C127.359 70.1344 128.521 69.9182 129.598 70.155C130.663 70.3892 131.66 71.0718 132.605 72.6738L132.821 72.5468C131.85 70.9006 130.8 70.1634 129.652 69.9109C128.516 69.661 127.3 69.8911 126.017 70.1318L126.063 70.3775ZM125.385 70.5025C125.614 70.4618 125.841 70.4193 126.063 70.3775L126.017 70.1318C125.794 70.1736 125.569 70.2159 125.341 70.2564L125.385 70.5025ZM121.406 71.9224C122.632 71.2059 123.98 70.7245 125.383 70.5029L125.343 70.256C123.91 70.4824 122.532 70.9744 121.28 71.7066L121.406 71.9224ZM119.933 73.6144C120.243 72.9139 120.757 72.3236 121.409 71.9209L121.277 71.7082C120.583 72.1374 120.035 72.7667 119.705 73.5133L119.933 73.6144Z" fill="#328BDE"/>
<defs>
<linearGradient id="paint0_linear_9_6" x1="178.52" y1="36.0714" x2="140.312" y2="196.449" gradientUnits="userSpaceOnUse">
<stop stop-color="#C884E8"/>
<stop offset="0.386725" stop-color="#68AFF0"/>
<stop offset="0.891928" stop-color="#ECD9EA" stop-opacity="0.99"/>
</linearGradient>
</defs>
</svg>
