<svg width="384" height="503" viewBox="0 0 384 503" fill="none" xmlns="http://www.w3.org/2000/svg">
<g filter="url(#filter0_d_140_12)">
<path d="M378.308 247C386.557 282.37 361.959 307.495 361.959 307.495L350.73 318.932C344.803 323.158 338.625 327.781 331.844 331.765C320.723 338.262 308.129 341.398 295.437 340.831L290.135 340.602C285.517 340.403 280.924 339.763 276.415 338.688L257.927 334.51C257.012 334.301 256.084 334.161 255.151 334.089L247.903 333.571C247.373 333.535 246.841 333.535 246.311 333.571L233.443 334.498C229.926 334.749 226.441 335.379 223.044 336.376L216.855 338.784C210.965 341.069 205.529 344.494 200.825 348.885L189.8 360.43C186.485 363.903 183.838 368.025 182.007 372.565C181.859 372.926 181.723 373.287 181.586 373.649L177.035 393.549L175.659 398.786L171.733 412.028C168.798 421.948 167.012 428.726 160.88 436.84L157.876 440.825C155.032 444.136 155.032 444.136 151.767 448.35L147.932 451.817C144.056 455.204 139.742 457.989 135.122 460.087L129.433 461.363C122.448 462.919 115.33 463.702 108.192 463.699H92.4119C91.8885 463.699 91.3879 463.795 90.8646 463.807C86.1886 463.807 75.8467 464.253 71.1252 463.699C68.4718 463.505 65.8076 463.55 63.1612 463.831C57.9561 464.265 52.9057 465.909 48.3709 468.647C42.5085 472.125 36.9262 476.107 31.6806 480.553C30.2081 481.835 28.6363 482.982 26.9819 483.984L21.8166 487.103C19.8056 488.321 17.7099 489.375 15.5478 490.257L4 495V247H378.308Z" fill="#6C63FF"/>
<path d="M378.308 247C386.557 282.37 361.959 307.495 361.959 307.495L350.73 318.932C344.803 323.158 338.625 327.781 331.844 331.765C320.723 338.262 308.129 341.398 295.437 340.831L290.135 340.602C285.517 340.403 280.924 339.763 276.415 338.688L257.927 334.51C257.012 334.301 256.084 334.161 255.151 334.089L247.903 333.571C247.373 333.535 246.841 333.535 246.311 333.571L233.443 334.498C229.926 334.749 226.441 335.379 223.044 336.376L216.855 338.784C210.965 341.069 205.529 344.494 200.825 348.885L189.8 360.43C186.485 363.903 183.838 368.025 182.007 372.565C181.859 372.926 181.723 373.287 181.586 373.649L177.035 393.549L175.659 398.786L171.733 412.028C168.798 421.948 167.012 428.726 160.88 436.84L157.876 440.825C155.032 444.136 155.032 444.136 151.767 448.35L147.932 451.817C144.056 455.204 139.742 457.989 135.122 460.087L129.433 461.363C122.448 462.919 115.33 463.702 108.192 463.699H92.4119C91.8885 463.699 91.3879 463.795 90.8646 463.807C86.1886 463.807 75.8467 464.253 71.1252 463.699C68.4718 463.505 65.8076 463.55 63.1612 463.831C57.9561 464.265 52.9057 465.909 48.3709 468.647C42.5085 472.125 36.9262 476.107 31.6806 480.553C30.2081 481.835 28.6363 482.982 26.9819 483.984L21.8166 487.103C19.8056 488.321 17.7099 489.375 15.5478 490.257L4 495V247H378.308Z" fill="#6C63FF"/>
<path d="M378.308 248C386.557 212.63 361.959 187.505 361.959 187.505L350.73 176.068C344.803 171.842 338.625 167.219 331.844 163.235C320.723 156.738 308.129 153.602 295.437 154.169L290.135 154.398C285.517 154.597 280.924 155.237 276.415 156.312L257.927 160.49C257.012 160.699 256.084 160.839 255.151 160.911L247.903 161.429C247.373 161.465 246.841 161.465 246.311 161.429L233.443 160.502C229.926 160.251 226.441 159.621 223.044 158.624L216.855 156.216C210.965 153.931 205.529 150.506 200.825 146.115L189.8 134.57C186.485 131.097 183.838 126.975 182.007 122.435C181.859 122.074 181.723 121.713 181.586 121.351L177.035 101.451L175.659 96.2144L171.733 82.9716C168.798 73.0516 167.012 66.2738 160.88 58.1596L157.876 54.1748C155.032 50.8641 155.032 50.8641 151.767 46.6505L147.932 43.1833C144.056 39.7957 139.742 37.0108 135.122 34.9126L129.433 33.6365C122.448 32.0811 115.33 31.2984 108.192 31.301H92.4119C91.8885 31.301 91.3879 31.2047 90.8646 31.1926C86.1886 31.1926 75.8467 30.7472 71.1252 31.301C68.4718 31.4948 65.8076 31.4505 63.1612 31.1685C57.9561 30.7354 52.9057 29.0911 48.3709 26.353C42.5085 22.875 36.9262 18.8928 31.6806 14.4466C30.2081 13.1654 28.6363 12.0177 26.9819 11.0155L21.8166 7.89747C19.8056 6.67948 17.7099 5.62505 15.5478 4.7433L4 -6.91414e-06V248H378.308Z" fill="#6C63FF"/>
<path d="M378.308 248C386.557 212.63 361.959 187.505 361.959 187.505L350.73 176.068C344.803 171.842 338.625 167.219 331.844 163.235C320.723 156.738 308.129 153.602 295.437 154.169L290.135 154.398C285.517 154.597 280.924 155.237 276.415 156.312L257.927 160.49C257.012 160.699 256.084 160.839 255.151 160.911L247.903 161.429C247.373 161.465 246.841 161.465 246.311 161.429L233.443 160.502C229.926 160.251 226.441 159.621 223.044 158.624L216.855 156.216C210.965 153.931 205.529 150.506 200.825 146.115L189.8 134.57C186.485 131.097 183.838 126.975 182.007 122.435C181.859 122.074 181.723 121.713 181.586 121.351L177.035 101.451L175.659 96.2144L171.733 82.9716C168.798 73.0516 167.012 66.2738 160.88 58.1596L157.876 54.1748C155.032 50.8641 155.032 50.8641 151.767 46.6505L147.932 43.1833C144.056 39.7957 139.742 37.0108 135.122 34.9126L129.433 33.6365C122.448 32.0811 115.33 31.2984 108.192 31.301H92.4119C91.8885 31.301 91.3879 31.2047 90.8646 31.1926C86.1886 31.1926 75.8467 30.7472 71.1252 31.301C68.4718 31.4948 65.8076 31.4505 63.1612 31.1685C57.9561 30.7354 52.9057 29.0911 48.3709 26.353C42.5085 22.875 36.9262 18.8928 31.6806 14.4466C30.2081 13.1654 28.6363 12.0177 26.9819 11.0155L21.8166 7.89747C19.8056 6.67948 17.7099 5.62505 15.5478 4.7433L4 -6.91414e-06V248H378.308Z" fill="#6C63FF"/>
</g>
<defs>
<filter id="filter0_d_140_12" x="0" y="0" width="384" height="503" filterUnits="userSpaceOnUse" color-interpolation-filters="sRGB">
<feFlood flood-opacity="0" result="BackgroundImageFix"/>
<feColorMatrix in="SourceAlpha" type="matrix" values="0 0 0 0 0 0 0 0 0 0 0 0 0 0 0 0 0 0 127 0" result="hardAlpha"/>
<feOffset dy="4"/>
<feGaussianBlur stdDeviation="2"/>
<feComposite in2="hardAlpha" operator="out"/>
<feColorMatrix type="matrix" values="0 0 0 0 0 0 0 0 0 0 0 0 0 0 0 0 0 0 0.25 0"/>
<feBlend mode="normal" in2="BackgroundImageFix" result="effect1_dropShadow_140_12"/>
<feBlend mode="normal" in="SourceGraphic" in2="effect1_dropShadow_140_12" result="shape"/>
</filter>
</defs>
</svg>
